<svg width="900" height="960" viewBox="0 0 900 960" fill="none" xmlns="http://www.w3.org/2000/svg">
  <rect width="900" height="960" fill="#F6EEE3"/>
  <rect x="54" y="54" width="792" height="852" rx="52" fill="url(#paint0_linear_1_6)"/>
  <circle cx="664" cy="236" r="104" fill="#EFD18A" fill-opacity="0.55"/>
  <circle cx="710" cy="282" r="166" fill="#DDE7DE" fill-opacity="0.72"/>
  <path d="M278 671C278 587.053 346.053 519 430 519H470C553.947 519 622 587.053 622 671V770H278V671Z" fill="#4F6F57"/>
  <circle cx="450" cy="367" r="134" fill="#D9B28B"/>
  <path d="M333 360C333 291.517 388.517 236 457 236C525.483 236 581 291.517 581 360V403C581 471.483 525.483 527 457 527C388.517 527 333 471.483 333 403V360Z" fill="#E6C3A0"/>
  <path d="M352 334C352 254.471 416.471 190 496 190H515C594.529 190 659 254.471 659 334V346H352V334Z" fill="#24372B"/>
  <path d="M318 367C318 282.501 386.501 214 471 214H496C580.499 214 649 282.501 649 367V387C649 471.499 580.499 540 496 540H471C386.501 540 318 471.499 318 387V367Z" fill="#31473A"/>
  <path d="M348 368C348 299.487 403.487 244 472 244H480C548.513 244 604 299.487 604 368V405C604 473.513 548.513 529 480 529H472C403.487 529 348 473.513 348 405V368Z" fill="#E8C8A6"/>
  <path d="M393 346C393 318.386 415.386 296 443 296H503C530.614 296 553 318.386 553 346V350H393V346Z" fill="#24372B"/>
  <path d="M415 398C415 384.193 426.193 373 440 373H507C520.807 373 532 384.193 532 398V404H415V398Z" fill="#F7EBDD"/>
  <path d="M375 333C375 273.353 423.353 225 483 225C542.647 225 591 273.353 591 333V350H375V333Z" fill="#24372B"/>
  <path d="M329 770H571L641 866H259L329 770Z" fill="#D4B46A"/>
  <rect x="247" y="864" width="406" height="42" rx="21" fill="#24372B" fill-opacity="0.18"/>
  <defs>
    <linearGradient id="paint0_linear_1_6" x1="126" y1="104" x2="758" y2="884" gradientUnits="userSpaceOnUse">
      <stop stop-color="#FFFDF9"/>
      <stop offset="1" stop-color="#EDE6DC"/>
    </linearGradient>
  </defs>
</svg>
